<mxfile host="app.diagrams.net" modified="2023-10-06T09:13:49.571Z" agent="Mozilla/5.0 (Macintosh; Intel Mac OS X 10_15_7) AppleWebKit/537.36 (KHTML, like Gecko) Chrome/117.0.0.0 Safari/537.36" etag="r6ifGA5uC4AISA1Cpx2L" version="21.7.5" type="device" pages="5">
  <diagram name="Architecture" id="7H3xbc4HGaTJAkzIjteD">
    <mxGraphModel dx="1114" dy="708" grid="1" gridSize="10" guides="1" tooltips="1" connect="1" arrows="1" fold="1" page="1" pageScale="1" pageWidth="827" pageHeight="1169" math="0" shadow="0">
      <root>
        <mxCell id="0" />
        <mxCell id="1" parent="0" />
        <mxCell id="xrk26d0VaG-_C3U5m9UK-34" style="edgeStyle=orthogonalEdgeStyle;rounded=0;orthogonalLoop=1;jettySize=auto;html=1;entryX=0;entryY=0.5;entryDx=0;entryDy=0;" parent="1" source="xrk26d0VaG-_C3U5m9UK-1" target="xrk26d0VaG-_C3U5m9UK-2" edge="1">
          <mxGeometry relative="1" as="geometry" />
        </mxCell>
        <mxCell id="xrk26d0VaG-_C3U5m9UK-1" value="Frontend" style="rounded=0;whiteSpace=wrap;html=1;" parent="1" vertex="1">
          <mxGeometry x="60" y="20" width="80" height="540" as="geometry" />
        </mxCell>
        <mxCell id="xrk26d0VaG-_C3U5m9UK-4" value="" style="edgeStyle=orthogonalEdgeStyle;rounded=0;orthogonalLoop=1;jettySize=auto;html=1;" parent="1" source="xrk26d0VaG-_C3U5m9UK-2" target="xrk26d0VaG-_C3U5m9UK-3" edge="1">
          <mxGeometry relative="1" as="geometry" />
        </mxCell>
        <mxCell id="xrk26d0VaG-_C3U5m9UK-8" style="edgeStyle=orthogonalEdgeStyle;rounded=0;orthogonalLoop=1;jettySize=auto;html=1;entryX=0;entryY=0.5;entryDx=0;entryDy=0;" parent="1" source="xrk26d0VaG-_C3U5m9UK-2" target="xrk26d0VaG-_C3U5m9UK-7" edge="1">
          <mxGeometry relative="1" as="geometry" />
        </mxCell>
        <mxCell id="xrk26d0VaG-_C3U5m9UK-16" value="" style="edgeStyle=orthogonalEdgeStyle;rounded=0;orthogonalLoop=1;jettySize=auto;html=1;" parent="1" source="xrk26d0VaG-_C3U5m9UK-2" target="xrk26d0VaG-_C3U5m9UK-15" edge="1">
          <mxGeometry relative="1" as="geometry" />
        </mxCell>
        <mxCell id="xrk26d0VaG-_C3U5m9UK-17" style="edgeStyle=orthogonalEdgeStyle;rounded=0;orthogonalLoop=1;jettySize=auto;html=1;" parent="1" source="xrk26d0VaG-_C3U5m9UK-2" target="xrk26d0VaG-_C3U5m9UK-13" edge="1">
          <mxGeometry relative="1" as="geometry" />
        </mxCell>
        <mxCell id="xrk26d0VaG-_C3U5m9UK-18" style="edgeStyle=orthogonalEdgeStyle;rounded=0;orthogonalLoop=1;jettySize=auto;html=1;entryX=0;entryY=0.5;entryDx=0;entryDy=0;" parent="1" source="xrk26d0VaG-_C3U5m9UK-2" target="xrk26d0VaG-_C3U5m9UK-14" edge="1">
          <mxGeometry relative="1" as="geometry">
            <Array as="points">
              <mxPoint x="270" y="368" />
              <mxPoint x="270" y="430" />
            </Array>
          </mxGeometry>
        </mxCell>
        <mxCell id="xrk26d0VaG-_C3U5m9UK-19" style="edgeStyle=orthogonalEdgeStyle;rounded=0;orthogonalLoop=1;jettySize=auto;html=1;entryX=0;entryY=0.5;entryDx=0;entryDy=0;" parent="1" source="xrk26d0VaG-_C3U5m9UK-2" target="xrk26d0VaG-_C3U5m9UK-12" edge="1">
          <mxGeometry relative="1" as="geometry" />
        </mxCell>
        <mxCell id="xrk26d0VaG-_C3U5m9UK-2" value="API Gateway" style="rounded=0;whiteSpace=wrap;html=1;" parent="1" vertex="1">
          <mxGeometry x="180" y="210" width="70" height="315" as="geometry" />
        </mxCell>
        <mxCell id="xrk26d0VaG-_C3U5m9UK-3" value="Auth&lt;br&gt;- Username, pwd, role" style="shape=cylinder3;whiteSpace=wrap;html=1;boundedLbl=1;backgroundOutline=1;size=15;" parent="1" vertex="1">
          <mxGeometry x="177.5" y="90" width="75" height="90" as="geometry" />
        </mxCell>
        <mxCell id="xrk26d0VaG-_C3U5m9UK-5" value="Authorisation&lt;br&gt;And&lt;br&gt;Access control&lt;br&gt;" style="text;html=1;align=center;verticalAlign=middle;resizable=0;points=[];autosize=1;strokeColor=none;fillColor=none;" parent="1" vertex="1">
          <mxGeometry x="165" y="30" width="100" height="60" as="geometry" />
        </mxCell>
        <mxCell id="xrk26d0VaG-_C3U5m9UK-6" value="&lt;span style=&quot;font-size: 20px;&quot;&gt;Architecture&lt;/span&gt;" style="text;html=1;align=center;verticalAlign=middle;resizable=0;points=[];autosize=1;strokeColor=none;fillColor=none;" parent="1" vertex="1">
          <mxGeometry x="345" y="40" width="130" height="40" as="geometry" />
        </mxCell>
        <mxCell id="xrk26d0VaG-_C3U5m9UK-9" value="" style="edgeStyle=orthogonalEdgeStyle;rounded=0;orthogonalLoop=1;jettySize=auto;html=1;exitX=0.5;exitY=0;exitDx=0;exitDy=0;" parent="1" source="xrk26d0VaG-_C3U5m9UK-7" target="xrk26d0VaG-_C3U5m9UK-36" edge="1">
          <mxGeometry relative="1" as="geometry">
            <mxPoint x="365" y="170" as="sourcePoint" />
          </mxGeometry>
        </mxCell>
        <mxCell id="xrk26d0VaG-_C3U5m9UK-37" style="edgeStyle=orthogonalEdgeStyle;rounded=0;orthogonalLoop=1;jettySize=auto;html=1;entryX=1;entryY=0.5;entryDx=0;entryDy=0;entryPerimeter=0;" parent="1" target="xrk26d0VaG-_C3U5m9UK-3" edge="1">
          <mxGeometry relative="1" as="geometry">
            <mxPoint x="365" y="160" as="sourcePoint" />
            <Array as="points">
              <mxPoint x="365" y="135" />
            </Array>
          </mxGeometry>
        </mxCell>
        <mxCell id="xrk26d0VaG-_C3U5m9UK-7" value="Account Management" style="rounded=0;whiteSpace=wrap;html=1;" parent="1" vertex="1">
          <mxGeometry x="290" y="160" width="150" height="40" as="geometry" />
        </mxCell>
        <mxCell id="xrk26d0VaG-_C3U5m9UK-25" value="" style="edgeStyle=orthogonalEdgeStyle;rounded=0;orthogonalLoop=1;jettySize=auto;html=1;" parent="1" source="xrk26d0VaG-_C3U5m9UK-12" target="xrk26d0VaG-_C3U5m9UK-20" edge="1">
          <mxGeometry relative="1" as="geometry" />
        </mxCell>
        <mxCell id="xrk26d0VaG-_C3U5m9UK-12" value="Training" style="rounded=0;whiteSpace=wrap;html=1;" parent="1" vertex="1">
          <mxGeometry x="290" y="220" width="150" height="40" as="geometry" />
        </mxCell>
        <mxCell id="xrk26d0VaG-_C3U5m9UK-26" value="" style="edgeStyle=orthogonalEdgeStyle;rounded=0;orthogonalLoop=1;jettySize=auto;html=1;" parent="1" source="xrk26d0VaG-_C3U5m9UK-13" target="xrk26d0VaG-_C3U5m9UK-21" edge="1">
          <mxGeometry relative="1" as="geometry" />
        </mxCell>
        <mxCell id="xrk26d0VaG-_C3U5m9UK-13" value="Quiz" style="rounded=0;whiteSpace=wrap;html=1;" parent="1" vertex="1">
          <mxGeometry x="290" y="320" width="150" height="40" as="geometry" />
        </mxCell>
        <mxCell id="xrk26d0VaG-_C3U5m9UK-27" value="" style="edgeStyle=orthogonalEdgeStyle;rounded=0;orthogonalLoop=1;jettySize=auto;html=1;" parent="1" source="xrk26d0VaG-_C3U5m9UK-14" target="xrk26d0VaG-_C3U5m9UK-22" edge="1">
          <mxGeometry relative="1" as="geometry" />
        </mxCell>
        <mxCell id="xrk26d0VaG-_C3U5m9UK-14" value="Problems" style="rounded=0;whiteSpace=wrap;html=1;" parent="1" vertex="1">
          <mxGeometry x="290" y="410" width="145" height="40" as="geometry" />
        </mxCell>
        <mxCell id="xrk26d0VaG-_C3U5m9UK-28" value="" style="edgeStyle=orthogonalEdgeStyle;rounded=0;orthogonalLoop=1;jettySize=auto;html=1;" parent="1" source="xrk26d0VaG-_C3U5m9UK-15" target="xrk26d0VaG-_C3U5m9UK-23" edge="1">
          <mxGeometry relative="1" as="geometry" />
        </mxCell>
        <mxCell id="xrk26d0VaG-_C3U5m9UK-15" value="Help Section" style="rounded=0;whiteSpace=wrap;html=1;" parent="1" vertex="1">
          <mxGeometry x="290" y="507.5" width="150" height="45" as="geometry" />
        </mxCell>
        <mxCell id="xrk26d0VaG-_C3U5m9UK-20" value="Training material&lt;br&gt;- SubjectID, TopicID, Links []text" style="shape=cylinder3;whiteSpace=wrap;html=1;boundedLbl=1;backgroundOutline=1;size=15;" parent="1" vertex="1">
          <mxGeometry x="500" y="200" width="130" height="80" as="geometry" />
        </mxCell>
        <mxCell id="xrk26d0VaG-_C3U5m9UK-21" value="Quizzes&lt;br&gt;- SubjectID, TopicID, Question, options[], correct option" style="shape=cylinder3;whiteSpace=wrap;html=1;boundedLbl=1;backgroundOutline=1;size=15;" parent="1" vertex="1">
          <mxGeometry x="500" y="295" width="130" height="90" as="geometry" />
        </mxCell>
        <mxCell id="xrk26d0VaG-_C3U5m9UK-22" value="Problems&lt;br&gt;- SubjectID, TopicID, Problem" style="shape=cylinder3;whiteSpace=wrap;html=1;boundedLbl=1;backgroundOutline=1;size=15;" parent="1" vertex="1">
          <mxGeometry x="500" y="390" width="130" height="80" as="geometry" />
        </mxCell>
        <mxCell id="xrk26d0VaG-_C3U5m9UK-23" value="Discussions&lt;br&gt;- SubjectID, TopicID, QuestionID, Question, Solutions [id: solution]text" style="shape=cylinder3;whiteSpace=wrap;html=1;boundedLbl=1;backgroundOutline=1;size=15;" parent="1" vertex="1">
          <mxGeometry x="500" y="480" width="130" height="110" as="geometry" />
        </mxCell>
        <mxCell id="xrk26d0VaG-_C3U5m9UK-30" value="" style="edgeStyle=orthogonalEdgeStyle;rounded=0;orthogonalLoop=1;jettySize=auto;html=1;" parent="1" source="xrk26d0VaG-_C3U5m9UK-24" target="xrk26d0VaG-_C3U5m9UK-22" edge="1">
          <mxGeometry relative="1" as="geometry" />
        </mxCell>
        <mxCell id="xrk26d0VaG-_C3U5m9UK-31" style="edgeStyle=orthogonalEdgeStyle;rounded=0;orthogonalLoop=1;jettySize=auto;html=1;" parent="1" source="xrk26d0VaG-_C3U5m9UK-24" target="xrk26d0VaG-_C3U5m9UK-21" edge="1">
          <mxGeometry relative="1" as="geometry" />
        </mxCell>
        <mxCell id="xrk26d0VaG-_C3U5m9UK-32" style="edgeStyle=orthogonalEdgeStyle;rounded=0;orthogonalLoop=1;jettySize=auto;html=1;entryX=1;entryY=0.5;entryDx=0;entryDy=0;entryPerimeter=0;" parent="1" source="xrk26d0VaG-_C3U5m9UK-24" target="xrk26d0VaG-_C3U5m9UK-20" edge="1">
          <mxGeometry relative="1" as="geometry" />
        </mxCell>
        <mxCell id="xrk26d0VaG-_C3U5m9UK-33" style="edgeStyle=orthogonalEdgeStyle;rounded=0;orthogonalLoop=1;jettySize=auto;html=1;" parent="1" source="xrk26d0VaG-_C3U5m9UK-24" target="xrk26d0VaG-_C3U5m9UK-23" edge="1">
          <mxGeometry relative="1" as="geometry" />
        </mxCell>
        <mxCell id="xrk26d0VaG-_C3U5m9UK-24" value="Subjects&lt;br&gt;&lt;br&gt;- Subject ID&lt;br&gt;- Subject Name&lt;br&gt;- Enrolled Students" style="shape=cylinder3;whiteSpace=wrap;html=1;boundedLbl=1;backgroundOutline=1;size=15;" parent="1" vertex="1">
          <mxGeometry x="700" y="210" width="110" height="350" as="geometry" />
        </mxCell>
        <mxCell id="xrk26d0VaG-_C3U5m9UK-35" value="Accounts DB&lt;br&gt;- Name&lt;br&gt;- HPE Roll Num&lt;br&gt;- Enrolled Subjects ID []text&lt;br&gt;- Quiz marks []text&amp;nbsp;&lt;br&gt;- Problem marks []text&lt;br&gt;- Questions asked []text&lt;br&gt;- Solutions given []text&lt;br&gt;-&amp;nbsp;username&lt;br&gt;- role = Intern/Fresher" style="rounded=0;whiteSpace=wrap;html=1;" parent="1" vertex="1">
          <mxGeometry x="650" y="20" width="180" height="160" as="geometry" />
        </mxCell>
        <mxCell id="xrk26d0VaG-_C3U5m9UK-36" value="Accounts" style="shape=cylinder3;whiteSpace=wrap;html=1;boundedLbl=1;backgroundOutline=1;size=15;" parent="1" vertex="1">
          <mxGeometry x="490" y="120" width="140" height="70" as="geometry" />
        </mxCell>
        <mxCell id="xrk26d0VaG-_C3U5m9UK-38" value="CRUD" style="text;html=1;align=center;verticalAlign=middle;resizable=0;points=[];autosize=1;strokeColor=none;fillColor=none;" parent="1" vertex="1">
          <mxGeometry x="265" y="110" width="60" height="30" as="geometry" />
        </mxCell>
        <mxCell id="xrk26d0VaG-_C3U5m9UK-39" value="R" style="text;html=1;align=center;verticalAlign=middle;resizable=0;points=[];autosize=1;strokeColor=none;fillColor=none;" parent="1" vertex="1">
          <mxGeometry x="395" y="118" width="30" height="30" as="geometry" />
        </mxCell>
        <mxCell id="xrk26d0VaG-_C3U5m9UK-40" value="R" style="text;html=1;align=center;verticalAlign=middle;resizable=0;points=[];autosize=1;strokeColor=none;fillColor=none;" parent="1" vertex="1">
          <mxGeometry x="455" y="218" width="30" height="30" as="geometry" />
        </mxCell>
        <mxCell id="xrk26d0VaG-_C3U5m9UK-41" value="R" style="text;html=1;align=center;verticalAlign=middle;resizable=0;points=[];autosize=1;strokeColor=none;fillColor=none;" parent="1" vertex="1">
          <mxGeometry x="455" y="318" width="30" height="30" as="geometry" />
        </mxCell>
        <mxCell id="xrk26d0VaG-_C3U5m9UK-42" value="R" style="text;html=1;align=center;verticalAlign=middle;resizable=0;points=[];autosize=1;strokeColor=none;fillColor=none;" parent="1" vertex="1">
          <mxGeometry x="455" y="408" width="30" height="30" as="geometry" />
        </mxCell>
        <mxCell id="xrk26d0VaG-_C3U5m9UK-43" value="CR" style="text;html=1;align=center;verticalAlign=middle;resizable=0;points=[];autosize=1;strokeColor=none;fillColor=none;" parent="1" vertex="1">
          <mxGeometry x="440" y="507.5" width="40" height="30" as="geometry" />
        </mxCell>
        <mxCell id="xrk26d0VaG-_C3U5m9UK-164" style="edgeStyle=orthogonalEdgeStyle;rounded=0;orthogonalLoop=1;jettySize=auto;html=1;entryX=0;entryY=0.5;entryDx=0;entryDy=0;" parent="1" source="xrk26d0VaG-_C3U5m9UK-165" target="xrk26d0VaG-_C3U5m9UK-172" edge="1">
          <mxGeometry relative="1" as="geometry" />
        </mxCell>
        <mxCell id="xrk26d0VaG-_C3U5m9UK-165" value="Frontend" style="rounded=0;whiteSpace=wrap;html=1;" parent="1" vertex="1">
          <mxGeometry x="60" y="609" width="80" height="540" as="geometry" />
        </mxCell>
        <mxCell id="xrk26d0VaG-_C3U5m9UK-166" value="" style="edgeStyle=orthogonalEdgeStyle;rounded=0;orthogonalLoop=1;jettySize=auto;html=1;" parent="1" source="xrk26d0VaG-_C3U5m9UK-172" target="xrk26d0VaG-_C3U5m9UK-173" edge="1">
          <mxGeometry relative="1" as="geometry" />
        </mxCell>
        <mxCell id="xrk26d0VaG-_C3U5m9UK-167" style="edgeStyle=orthogonalEdgeStyle;rounded=0;orthogonalLoop=1;jettySize=auto;html=1;entryX=0;entryY=0.5;entryDx=0;entryDy=0;" parent="1" source="xrk26d0VaG-_C3U5m9UK-172" target="xrk26d0VaG-_C3U5m9UK-178" edge="1">
          <mxGeometry relative="1" as="geometry" />
        </mxCell>
        <mxCell id="xrk26d0VaG-_C3U5m9UK-168" value="" style="edgeStyle=orthogonalEdgeStyle;rounded=0;orthogonalLoop=1;jettySize=auto;html=1;" parent="1" source="xrk26d0VaG-_C3U5m9UK-172" target="xrk26d0VaG-_C3U5m9UK-186" edge="1">
          <mxGeometry relative="1" as="geometry" />
        </mxCell>
        <mxCell id="xrk26d0VaG-_C3U5m9UK-169" style="edgeStyle=orthogonalEdgeStyle;rounded=0;orthogonalLoop=1;jettySize=auto;html=1;" parent="1" source="xrk26d0VaG-_C3U5m9UK-172" target="xrk26d0VaG-_C3U5m9UK-182" edge="1">
          <mxGeometry relative="1" as="geometry" />
        </mxCell>
        <mxCell id="xrk26d0VaG-_C3U5m9UK-170" style="edgeStyle=orthogonalEdgeStyle;rounded=0;orthogonalLoop=1;jettySize=auto;html=1;entryX=0;entryY=0.5;entryDx=0;entryDy=0;" parent="1" source="xrk26d0VaG-_C3U5m9UK-172" target="xrk26d0VaG-_C3U5m9UK-184" edge="1">
          <mxGeometry relative="1" as="geometry">
            <Array as="points">
              <mxPoint x="270" y="957" />
              <mxPoint x="270" y="1019" />
            </Array>
          </mxGeometry>
        </mxCell>
        <mxCell id="xrk26d0VaG-_C3U5m9UK-171" style="edgeStyle=orthogonalEdgeStyle;rounded=0;orthogonalLoop=1;jettySize=auto;html=1;entryX=0;entryY=0.5;entryDx=0;entryDy=0;" parent="1" source="xrk26d0VaG-_C3U5m9UK-172" target="xrk26d0VaG-_C3U5m9UK-180" edge="1">
          <mxGeometry relative="1" as="geometry" />
        </mxCell>
        <mxCell id="xrk26d0VaG-_C3U5m9UK-172" value="API Gateway" style="rounded=0;whiteSpace=wrap;html=1;" parent="1" vertex="1">
          <mxGeometry x="180" y="799" width="70" height="315" as="geometry" />
        </mxCell>
        <mxCell id="xrk26d0VaG-_C3U5m9UK-173" value="Auth&lt;br&gt;- Username, pwd, role" style="shape=cylinder3;whiteSpace=wrap;html=1;boundedLbl=1;backgroundOutline=1;size=15;" parent="1" vertex="1">
          <mxGeometry x="177.5" y="679" width="75" height="90" as="geometry" />
        </mxCell>
        <mxCell id="xrk26d0VaG-_C3U5m9UK-174" value="Authorisation&lt;br&gt;And&lt;br&gt;Access control&lt;br&gt;" style="text;html=1;align=center;verticalAlign=middle;resizable=0;points=[];autosize=1;strokeColor=none;fillColor=none;" parent="1" vertex="1">
          <mxGeometry x="165" y="619" width="100" height="60" as="geometry" />
        </mxCell>
        <mxCell id="xrk26d0VaG-_C3U5m9UK-175" value="&lt;font style=&quot;font-size: 18px;&quot;&gt;Architecture&lt;/font&gt;" style="text;html=1;align=center;verticalAlign=middle;resizable=0;points=[];autosize=1;strokeColor=none;fillColor=none;" parent="1" vertex="1">
          <mxGeometry x="335" y="659" width="120" height="40" as="geometry" />
        </mxCell>
        <mxCell id="xrk26d0VaG-_C3U5m9UK-176" value="" style="edgeStyle=orthogonalEdgeStyle;rounded=0;orthogonalLoop=1;jettySize=auto;html=1;exitX=0.5;exitY=0;exitDx=0;exitDy=0;" parent="1" source="xrk26d0VaG-_C3U5m9UK-178" target="xrk26d0VaG-_C3U5m9UK-197" edge="1">
          <mxGeometry relative="1" as="geometry">
            <mxPoint x="365" y="759" as="sourcePoint" />
          </mxGeometry>
        </mxCell>
        <mxCell id="xrk26d0VaG-_C3U5m9UK-177" style="edgeStyle=orthogonalEdgeStyle;rounded=0;orthogonalLoop=1;jettySize=auto;html=1;entryX=1;entryY=0.5;entryDx=0;entryDy=0;entryPerimeter=0;" parent="1" target="xrk26d0VaG-_C3U5m9UK-173" edge="1">
          <mxGeometry relative="1" as="geometry">
            <mxPoint x="365" y="749" as="sourcePoint" />
            <Array as="points">
              <mxPoint x="365" y="724" />
            </Array>
          </mxGeometry>
        </mxCell>
        <mxCell id="xrk26d0VaG-_C3U5m9UK-178" value="Account Management" style="rounded=0;whiteSpace=wrap;html=1;" parent="1" vertex="1">
          <mxGeometry x="290" y="749" width="150" height="40" as="geometry" />
        </mxCell>
        <mxCell id="xrk26d0VaG-_C3U5m9UK-179" value="" style="edgeStyle=orthogonalEdgeStyle;rounded=0;orthogonalLoop=1;jettySize=auto;html=1;" parent="1" source="xrk26d0VaG-_C3U5m9UK-180" target="xrk26d0VaG-_C3U5m9UK-187" edge="1">
          <mxGeometry relative="1" as="geometry" />
        </mxCell>
        <mxCell id="xrk26d0VaG-_C3U5m9UK-180" value="Training" style="rounded=0;whiteSpace=wrap;html=1;" parent="1" vertex="1">
          <mxGeometry x="290" y="809" width="150" height="40" as="geometry" />
        </mxCell>
        <mxCell id="xrk26d0VaG-_C3U5m9UK-181" value="" style="edgeStyle=orthogonalEdgeStyle;rounded=0;orthogonalLoop=1;jettySize=auto;html=1;" parent="1" source="xrk26d0VaG-_C3U5m9UK-182" target="xrk26d0VaG-_C3U5m9UK-188" edge="1">
          <mxGeometry relative="1" as="geometry" />
        </mxCell>
        <mxCell id="xrk26d0VaG-_C3U5m9UK-182" value="Quiz" style="rounded=0;whiteSpace=wrap;html=1;" parent="1" vertex="1">
          <mxGeometry x="290" y="909" width="150" height="40" as="geometry" />
        </mxCell>
        <mxCell id="xrk26d0VaG-_C3U5m9UK-183" value="" style="edgeStyle=orthogonalEdgeStyle;rounded=0;orthogonalLoop=1;jettySize=auto;html=1;" parent="1" source="xrk26d0VaG-_C3U5m9UK-184" target="xrk26d0VaG-_C3U5m9UK-189" edge="1">
          <mxGeometry relative="1" as="geometry" />
        </mxCell>
        <mxCell id="xrk26d0VaG-_C3U5m9UK-184" value="Problems" style="rounded=0;whiteSpace=wrap;html=1;" parent="1" vertex="1">
          <mxGeometry x="290" y="999" width="145" height="40" as="geometry" />
        </mxCell>
        <mxCell id="xrk26d0VaG-_C3U5m9UK-185" value="" style="edgeStyle=orthogonalEdgeStyle;rounded=0;orthogonalLoop=1;jettySize=auto;html=1;" parent="1" source="xrk26d0VaG-_C3U5m9UK-186" target="xrk26d0VaG-_C3U5m9UK-190" edge="1">
          <mxGeometry relative="1" as="geometry" />
        </mxCell>
        <mxCell id="xrk26d0VaG-_C3U5m9UK-186" value="Help Section" style="rounded=0;whiteSpace=wrap;html=1;" parent="1" vertex="1">
          <mxGeometry x="290" y="1096.5" width="150" height="45" as="geometry" />
        </mxCell>
        <mxCell id="xrk26d0VaG-_C3U5m9UK-187" value="Training material&lt;br&gt;- SubjectID, TopicID, Links []text" style="shape=cylinder3;whiteSpace=wrap;html=1;boundedLbl=1;backgroundOutline=1;size=15;" parent="1" vertex="1">
          <mxGeometry x="500" y="789" width="130" height="80" as="geometry" />
        </mxCell>
        <mxCell id="xrk26d0VaG-_C3U5m9UK-188" value="Quizzes&lt;br&gt;- SubjectID, TopicID, Question, options[], correct option" style="shape=cylinder3;whiteSpace=wrap;html=1;boundedLbl=1;backgroundOutline=1;size=15;" parent="1" vertex="1">
          <mxGeometry x="500" y="884" width="130" height="90" as="geometry" />
        </mxCell>
        <mxCell id="xrk26d0VaG-_C3U5m9UK-189" value="Problems&lt;br&gt;- SubjectID, TopicID, Problem" style="shape=cylinder3;whiteSpace=wrap;html=1;boundedLbl=1;backgroundOutline=1;size=15;" parent="1" vertex="1">
          <mxGeometry x="500" y="979" width="130" height="80" as="geometry" />
        </mxCell>
        <mxCell id="xrk26d0VaG-_C3U5m9UK-190" value="Discussions&lt;br style=&quot;border-color: var(--border-color);&quot;&gt;- SubjectID, TopicID, QuestionID, Question, Solutions [id: solution]text" style="shape=cylinder3;whiteSpace=wrap;html=1;boundedLbl=1;backgroundOutline=1;size=15;" parent="1" vertex="1">
          <mxGeometry x="500" y="1069" width="130" height="111" as="geometry" />
        </mxCell>
        <mxCell id="xrk26d0VaG-_C3U5m9UK-191" value="" style="edgeStyle=orthogonalEdgeStyle;rounded=0;orthogonalLoop=1;jettySize=auto;html=1;" parent="1" source="xrk26d0VaG-_C3U5m9UK-195" target="xrk26d0VaG-_C3U5m9UK-189" edge="1">
          <mxGeometry relative="1" as="geometry" />
        </mxCell>
        <mxCell id="xrk26d0VaG-_C3U5m9UK-192" style="edgeStyle=orthogonalEdgeStyle;rounded=0;orthogonalLoop=1;jettySize=auto;html=1;" parent="1" source="xrk26d0VaG-_C3U5m9UK-195" target="xrk26d0VaG-_C3U5m9UK-188" edge="1">
          <mxGeometry relative="1" as="geometry" />
        </mxCell>
        <mxCell id="xrk26d0VaG-_C3U5m9UK-193" style="edgeStyle=orthogonalEdgeStyle;rounded=0;orthogonalLoop=1;jettySize=auto;html=1;entryX=1;entryY=0.5;entryDx=0;entryDy=0;entryPerimeter=0;" parent="1" source="xrk26d0VaG-_C3U5m9UK-195" target="xrk26d0VaG-_C3U5m9UK-187" edge="1">
          <mxGeometry relative="1" as="geometry" />
        </mxCell>
        <mxCell id="xrk26d0VaG-_C3U5m9UK-194" style="edgeStyle=orthogonalEdgeStyle;rounded=0;orthogonalLoop=1;jettySize=auto;html=1;" parent="1" source="xrk26d0VaG-_C3U5m9UK-195" target="xrk26d0VaG-_C3U5m9UK-190" edge="1">
          <mxGeometry relative="1" as="geometry" />
        </mxCell>
        <mxCell id="xrk26d0VaG-_C3U5m9UK-195" value="Subjects&lt;br&gt;&lt;br&gt;- Subject ID&lt;br&gt;- Subject Name&lt;br&gt;- Enrolled Students&lt;br&gt;- Training DB&lt;br&gt;- Quiz DB&lt;br&gt;- Problems DB&lt;br&gt;- Discussions DB&lt;br&gt;" style="shape=cylinder3;whiteSpace=wrap;html=1;boundedLbl=1;backgroundOutline=1;size=15;" parent="1" vertex="1">
          <mxGeometry x="700" y="799" width="110" height="350" as="geometry" />
        </mxCell>
        <mxCell id="xrk26d0VaG-_C3U5m9UK-196" value="Accounts DB&lt;br&gt;- Name&lt;br&gt;- HPE Roll Num&lt;br&gt;- username&lt;br&gt;-role = Admin" style="rounded=0;whiteSpace=wrap;html=1;" parent="1" vertex="1">
          <mxGeometry x="665" y="640" width="150" height="120" as="geometry" />
        </mxCell>
        <mxCell id="xrk26d0VaG-_C3U5m9UK-197" value="Accounts" style="shape=cylinder3;whiteSpace=wrap;html=1;boundedLbl=1;backgroundOutline=1;size=15;" parent="1" vertex="1">
          <mxGeometry x="490" y="709" width="140" height="70" as="geometry" />
        </mxCell>
        <mxCell id="xrk26d0VaG-_C3U5m9UK-198" value="CRUD" style="text;html=1;align=center;verticalAlign=middle;resizable=0;points=[];autosize=1;strokeColor=none;fillColor=none;" parent="1" vertex="1">
          <mxGeometry x="265" y="699" width="60" height="30" as="geometry" />
        </mxCell>
        <mxCell id="xrk26d0VaG-_C3U5m9UK-199" value="CRUD" style="text;html=1;align=center;verticalAlign=middle;resizable=0;points=[];autosize=1;strokeColor=none;fillColor=none;" parent="1" vertex="1">
          <mxGeometry x="380" y="707" width="60" height="30" as="geometry" />
        </mxCell>
        <mxCell id="xrk26d0VaG-_C3U5m9UK-200" value="CRUD" style="text;html=1;align=center;verticalAlign=middle;resizable=0;points=[];autosize=1;strokeColor=none;fillColor=none;" parent="1" vertex="1">
          <mxGeometry x="440" y="807" width="60" height="30" as="geometry" />
        </mxCell>
        <mxCell id="xrk26d0VaG-_C3U5m9UK-201" value="CRUD" style="text;html=1;align=center;verticalAlign=middle;resizable=0;points=[];autosize=1;strokeColor=none;fillColor=none;" parent="1" vertex="1">
          <mxGeometry x="440" y="907" width="60" height="30" as="geometry" />
        </mxCell>
        <mxCell id="xrk26d0VaG-_C3U5m9UK-202" value="CRUD" style="text;html=1;align=center;verticalAlign=middle;resizable=0;points=[];autosize=1;strokeColor=none;fillColor=none;" parent="1" vertex="1">
          <mxGeometry x="440" y="997" width="60" height="30" as="geometry" />
        </mxCell>
        <mxCell id="xrk26d0VaG-_C3U5m9UK-203" value="CRUD" style="text;html=1;align=center;verticalAlign=middle;resizable=0;points=[];autosize=1;strokeColor=none;fillColor=none;" parent="1" vertex="1">
          <mxGeometry x="440" y="1096.5" width="60" height="30" as="geometry" />
        </mxCell>
        <mxCell id="xrk26d0VaG-_C3U5m9UK-205" value="&lt;font size=&quot;1&quot; style=&quot;&quot;&gt;&lt;b style=&quot;font-size: 17px;&quot;&gt;ROLE : ADMIN USER&lt;/b&gt;&lt;/font&gt;" style="text;html=1;align=center;verticalAlign=middle;resizable=0;points=[];autosize=1;strokeColor=none;fillColor=none;" parent="1" vertex="1">
          <mxGeometry x="310" y="629" width="190" height="30" as="geometry" />
        </mxCell>
        <mxCell id="xrk26d0VaG-_C3U5m9UK-206" value="&lt;font size=&quot;1&quot; style=&quot;&quot;&gt;&lt;b style=&quot;font-size: 17px;&quot;&gt;ROLE : Intern, New Joinee&lt;/b&gt;&lt;/font&gt;" style="text;html=1;align=center;verticalAlign=middle;resizable=0;points=[];autosize=1;strokeColor=none;fillColor=none;" parent="1" vertex="1">
          <mxGeometry x="285" y="10" width="240" height="30" as="geometry" />
        </mxCell>
      </root>
    </mxGraphModel>
  </diagram>
  <diagram id="H0vNO0Xm1MFfw7nKF-4G" name="Features- ADMIN">
    <mxGraphModel dx="1794" dy="682" grid="1" gridSize="10" guides="1" tooltips="1" connect="1" arrows="1" fold="1" page="1" pageScale="1" pageWidth="827" pageHeight="1169" math="0" shadow="0">
      <root>
        <mxCell id="0" />
        <mxCell id="1" parent="0" />
        <mxCell id="s9W0gLEdHIQ2nLfZW6rl-1" value="&lt;font style=&quot;font-size: 21px;&quot;&gt;Features&lt;/font&gt;" style="text;html=1;align=center;verticalAlign=middle;resizable=0;points=[];autosize=1;strokeColor=none;fillColor=none;" vertex="1" parent="1">
          <mxGeometry x="10" y="10" width="110" height="40" as="geometry" />
        </mxCell>
        <mxCell id="4vmVOD2OJyT3nnwBXF1p-8" value="" style="edgeStyle=orthogonalEdgeStyle;rounded=0;orthogonalLoop=1;jettySize=auto;html=1;" edge="1" parent="1" source="4vmVOD2OJyT3nnwBXF1p-1" target="4vmVOD2OJyT3nnwBXF1p-7">
          <mxGeometry relative="1" as="geometry" />
        </mxCell>
        <mxCell id="4vmVOD2OJyT3nnwBXF1p-1" value="Account Management" style="rounded=0;whiteSpace=wrap;html=1;" vertex="1" parent="1">
          <mxGeometry x="50" y="80" width="150" height="40" as="geometry" />
        </mxCell>
        <mxCell id="4vmVOD2OJyT3nnwBXF1p-11" value="" style="edgeStyle=orthogonalEdgeStyle;rounded=0;orthogonalLoop=1;jettySize=auto;html=1;entryX=0;entryY=0.5;entryDx=0;entryDy=0;" edge="1" parent="1" source="4vmVOD2OJyT3nnwBXF1p-2" target="4vmVOD2OJyT3nnwBXF1p-17">
          <mxGeometry relative="1" as="geometry">
            <mxPoint x="281.0000000000002" y="310" as="targetPoint" />
          </mxGeometry>
        </mxCell>
        <mxCell id="4vmVOD2OJyT3nnwBXF1p-2" value="Training" style="rounded=0;whiteSpace=wrap;html=1;" vertex="1" parent="1">
          <mxGeometry x="50" y="290" width="150" height="40" as="geometry" />
        </mxCell>
        <mxCell id="4vmVOD2OJyT3nnwBXF1p-20" style="edgeStyle=orthogonalEdgeStyle;rounded=0;orthogonalLoop=1;jettySize=auto;html=1;entryX=0;entryY=0.5;entryDx=0;entryDy=0;" edge="1" parent="1" source="4vmVOD2OJyT3nnwBXF1p-3" target="4vmVOD2OJyT3nnwBXF1p-19">
          <mxGeometry relative="1" as="geometry" />
        </mxCell>
        <mxCell id="4vmVOD2OJyT3nnwBXF1p-3" value="Quiz" style="rounded=0;whiteSpace=wrap;html=1;" vertex="1" parent="1">
          <mxGeometry x="50" y="370" width="150" height="40" as="geometry" />
        </mxCell>
        <mxCell id="D_ILknujbDT6nIb29Yg6-2" value="" style="edgeStyle=orthogonalEdgeStyle;rounded=0;orthogonalLoop=1;jettySize=auto;html=1;" edge="1" parent="1" source="4vmVOD2OJyT3nnwBXF1p-4" target="D_ILknujbDT6nIb29Yg6-1">
          <mxGeometry relative="1" as="geometry" />
        </mxCell>
        <mxCell id="4vmVOD2OJyT3nnwBXF1p-4" value="Problems" style="rounded=0;whiteSpace=wrap;html=1;" vertex="1" parent="1">
          <mxGeometry x="50" y="460" width="145" height="40" as="geometry" />
        </mxCell>
        <mxCell id="4vmVOD2OJyT3nnwBXF1p-7" value="- Read all account details&lt;br&gt;- Create and delete Accounts&lt;br&gt;- Authorise accounts?" style="whiteSpace=wrap;html=1;rounded=0;" vertex="1" parent="1">
          <mxGeometry x="281" y="70" width="260" height="60" as="geometry" />
        </mxCell>
        <mxCell id="4vmVOD2OJyT3nnwBXF1p-16" value="" style="edgeStyle=orthogonalEdgeStyle;rounded=0;orthogonalLoop=1;jettySize=auto;html=1;entryX=0;entryY=0.5;entryDx=0;entryDy=0;" edge="1" parent="1" source="4vmVOD2OJyT3nnwBXF1p-14" target="4vmVOD2OJyT3nnwBXF1p-18">
          <mxGeometry relative="1" as="geometry">
            <mxPoint x="295" y="210" as="targetPoint" />
          </mxGeometry>
        </mxCell>
        <mxCell id="4vmVOD2OJyT3nnwBXF1p-14" value="Subject" style="rounded=0;whiteSpace=wrap;html=1;" vertex="1" parent="1">
          <mxGeometry x="50" y="190" width="150" height="40" as="geometry" />
        </mxCell>
        <mxCell id="4vmVOD2OJyT3nnwBXF1p-17" value="- CRUD Training data" style="whiteSpace=wrap;html=1;rounded=0;" vertex="1" parent="1">
          <mxGeometry x="281" y="280" width="260" height="60" as="geometry" />
        </mxCell>
        <mxCell id="4vmVOD2OJyT3nnwBXF1p-18" value="- CRUD Subjects" style="whiteSpace=wrap;html=1;rounded=0;" vertex="1" parent="1">
          <mxGeometry x="281" y="180" width="260" height="60" as="geometry" />
        </mxCell>
        <mxCell id="4vmVOD2OJyT3nnwBXF1p-19" value="- CRUD Quizzes&lt;br&gt;- Get All results" style="whiteSpace=wrap;html=1;rounded=0;" vertex="1" parent="1">
          <mxGeometry x="281" y="360" width="260" height="60" as="geometry" />
        </mxCell>
        <mxCell id="D_ILknujbDT6nIb29Yg6-1" value="- CRUD Problems&lt;br&gt;- Set time limit&lt;br&gt;- Get All submissions" style="whiteSpace=wrap;html=1;rounded=0;" vertex="1" parent="1">
          <mxGeometry x="281" y="450" width="260" height="60" as="geometry" />
        </mxCell>
        <mxCell id="HmdMVIxGu04rwLsRluB8-1" value="&lt;font style=&quot;font-size: 19px;&quot;&gt;/admin/&lt;/font&gt;" style="text;html=1;align=center;verticalAlign=middle;resizable=0;points=[];autosize=1;strokeColor=none;fillColor=none;" vertex="1" parent="1">
          <mxGeometry x="-5" y="40" width="90" height="40" as="geometry" />
        </mxCell>
      </root>
    </mxGraphModel>
  </diagram>
  <diagram id="IOHzV703ldl4xK2_hiyz" name="Technology">
    <mxGraphModel dx="1114" dy="708" grid="1" gridSize="10" guides="1" tooltips="1" connect="1" arrows="1" fold="1" page="1" pageScale="1" pageWidth="827" pageHeight="1169" math="0" shadow="0">
      <root>
        <mxCell id="0" />
        <mxCell id="1" parent="0" />
        <mxCell id="WVCNOjOqx1RCrLRBp1Xm-1" value="&lt;font style=&quot;font-size: 19px;&quot;&gt;Technology used&lt;/font&gt;" style="text;html=1;align=center;verticalAlign=middle;resizable=0;points=[];autosize=1;strokeColor=none;fillColor=none;" parent="1" vertex="1">
          <mxGeometry x="20" y="10" width="170" height="40" as="geometry" />
        </mxCell>
        <mxCell id="WVCNOjOqx1RCrLRBp1Xm-2" value="Frontend" style="rounded=0;whiteSpace=wrap;html=1;" parent="1" vertex="1">
          <mxGeometry x="40" y="60" width="120" height="30" as="geometry" />
        </mxCell>
        <mxCell id="WVCNOjOqx1RCrLRBp1Xm-3" value="Backend" style="rounded=0;whiteSpace=wrap;html=1;" parent="1" vertex="1">
          <mxGeometry x="296" y="60" width="120" height="30" as="geometry" />
        </mxCell>
        <mxCell id="WVCNOjOqx1RCrLRBp1Xm-4" value="Database" style="rounded=0;whiteSpace=wrap;html=1;" parent="1" vertex="1">
          <mxGeometry x="490" y="60" width="120" height="30" as="geometry" />
        </mxCell>
        <mxCell id="WVCNOjOqx1RCrLRBp1Xm-7" value="" style="edgeStyle=orthogonalEdgeStyle;rounded=0;orthogonalLoop=1;jettySize=auto;html=1;" parent="1" source="WVCNOjOqx1RCrLRBp1Xm-5" target="WVCNOjOqx1RCrLRBp1Xm-6" edge="1">
          <mxGeometry relative="1" as="geometry" />
        </mxCell>
        <mxCell id="WVCNOjOqx1RCrLRBp1Xm-5" value="Website&lt;br&gt;- Dev -&amp;gt; React js&lt;br&gt;- Stying -&amp;gt; Grommet" style="rounded=1;whiteSpace=wrap;html=1;" parent="1" vertex="1">
          <mxGeometry x="25" y="110" width="150" height="60" as="geometry" />
        </mxCell>
        <mxCell id="WVCNOjOqx1RCrLRBp1Xm-6" value="API Gateway&lt;br&gt;Routing - FastAPI&lt;br&gt;Database connection -&amp;gt;&amp;nbsp; SQLAlchemy" style="rounded=1;whiteSpace=wrap;html=1;" parent="1" vertex="1">
          <mxGeometry x="240" y="110" width="232" height="60" as="geometry" />
        </mxCell>
        <mxCell id="WVCNOjOqx1RCrLRBp1Xm-8" value="Fetch API" style="text;html=1;align=center;verticalAlign=middle;resizable=0;points=[];autosize=1;strokeColor=none;fillColor=none;" parent="1" vertex="1">
          <mxGeometry x="170" y="110" width="80" height="30" as="geometry" />
        </mxCell>
        <mxCell id="WVCNOjOqx1RCrLRBp1Xm-10" value="&amp;nbsp;localhost : 5143" style="shape=process;whiteSpace=wrap;html=1;backgroundOutline=1;" parent="1" vertex="1">
          <mxGeometry x="10" y="190" width="180" height="40" as="geometry" />
        </mxCell>
        <mxCell id="WVCNOjOqx1RCrLRBp1Xm-11" value="http://127.0.0.1:8000" style="shape=process;whiteSpace=wrap;html=1;backgroundOutline=1;" parent="1" vertex="1">
          <mxGeometry x="248" y="190" width="216" height="40" as="geometry" />
        </mxCell>
      </root>
    </mxGraphModel>
  </diagram>
  <diagram id="WKQzNrkNQybRGnygAcmZ" name="Page-4">
    <mxGraphModel dx="1114" dy="708" grid="1" gridSize="10" guides="1" tooltips="1" connect="1" arrows="1" fold="1" page="1" pageScale="1" pageWidth="827" pageHeight="1169" math="0" shadow="0">
      <root>
        <mxCell id="0" />
        <mxCell id="1" parent="0" />
        <mxCell id="jzCwSWMRV2mCCqEwgIgS-1" value="&lt;font style=&quot;font-size: 20px;&quot;&gt;Progress&lt;/font&gt;" style="text;html=1;align=center;verticalAlign=middle;resizable=0;points=[];autosize=1;strokeColor=none;fillColor=none;" parent="1" vertex="1">
          <mxGeometry x="20" y="10" width="100" height="40" as="geometry" />
        </mxCell>
        <mxCell id="jzCwSWMRV2mCCqEwgIgS-4" value="" style="edgeStyle=orthogonalEdgeStyle;rounded=0;orthogonalLoop=1;jettySize=auto;html=1;" parent="1" source="jzCwSWMRV2mCCqEwgIgS-2" target="jzCwSWMRV2mCCqEwgIgS-3" edge="1">
          <mxGeometry relative="1" as="geometry" />
        </mxCell>
        <mxCell id="jzCwSWMRV2mCCqEwgIgS-2" value="Problems, Quiz, Subject, Tutorial Tables in DB" style="rounded=0;whiteSpace=wrap;html=1;" parent="1" vertex="1">
          <mxGeometry x="30" y="120" width="120" height="60" as="geometry" />
        </mxCell>
        <mxCell id="jzCwSWMRV2mCCqEwgIgS-7" value="" style="edgeStyle=orthogonalEdgeStyle;rounded=0;orthogonalLoop=1;jettySize=auto;html=1;" parent="1" source="jzCwSWMRV2mCCqEwgIgS-3" target="jzCwSWMRV2mCCqEwgIgS-6" edge="1">
          <mxGeometry relative="1" as="geometry" />
        </mxCell>
        <mxCell id="jzCwSWMRV2mCCqEwgIgS-3" value="Frontend Design" style="rounded=0;whiteSpace=wrap;html=1;" parent="1" vertex="1">
          <mxGeometry x="190" y="120" width="120" height="60" as="geometry" />
        </mxCell>
        <mxCell id="jzCwSWMRV2mCCqEwgIgS-5" value="ADMIN VIEW" style="text;html=1;align=center;verticalAlign=middle;resizable=0;points=[];autosize=1;strokeColor=none;fillColor=none;" parent="1" vertex="1">
          <mxGeometry x="40" y="90" width="100" height="30" as="geometry" />
        </mxCell>
        <mxCell id="jzCwSWMRV2mCCqEwgIgS-9" value="" style="edgeStyle=orthogonalEdgeStyle;rounded=0;orthogonalLoop=1;jettySize=auto;html=1;" parent="1" source="jzCwSWMRV2mCCqEwgIgS-6" target="jzCwSWMRV2mCCqEwgIgS-8" edge="1">
          <mxGeometry relative="1" as="geometry" />
        </mxCell>
        <mxCell id="jzCwSWMRV2mCCqEwgIgS-6" value="Create Website" style="rounded=0;whiteSpace=wrap;html=1;" parent="1" vertex="1">
          <mxGeometry x="350" y="120" width="120" height="60" as="geometry" />
        </mxCell>
        <mxCell id="jzCwSWMRV2mCCqEwgIgS-11" value="" style="edgeStyle=orthogonalEdgeStyle;rounded=0;orthogonalLoop=1;jettySize=auto;html=1;" parent="1" source="jzCwSWMRV2mCCqEwgIgS-8" target="jzCwSWMRV2mCCqEwgIgS-10" edge="1">
          <mxGeometry relative="1" as="geometry" />
        </mxCell>
        <mxCell id="jzCwSWMRV2mCCqEwgIgS-8" value="ADMIN VIEW for&lt;br&gt;- Subject&lt;br&gt;- Tutorial&lt;br&gt;- Quiz&lt;br&gt;- Problem&lt;br&gt;&lt;br&gt;Completed" style="rounded=0;whiteSpace=wrap;html=1;" parent="1" vertex="1">
          <mxGeometry x="520" y="85" width="120" height="130" as="geometry" />
        </mxCell>
        <mxCell id="jzCwSWMRV2mCCqEwgIgS-10" value="Accounts Table in DB" style="rounded=0;whiteSpace=wrap;html=1;" parent="1" vertex="1">
          <mxGeometry x="515" y="270" width="130" height="60" as="geometry" />
        </mxCell>
      </root>
    </mxGraphModel>
  </diagram>
  <diagram id="0GbFqFigsZZhBt-m5Rsl" name="Page-5">
    <mxGraphModel dx="1840" dy="1813" grid="1" gridSize="10" guides="1" tooltips="1" connect="1" arrows="1" fold="1" page="1" pageScale="1" pageWidth="827" pageHeight="1169" math="0" shadow="0">
      <root>
        <mxCell id="0" />
        <mxCell id="1" parent="0" />
        <mxCell id="bu_8oY3RxGgpF0Y-g3ye-1" value="Technology&lt;br&gt;- Tech ID&lt;br&gt;- Tech Name" style="rounded=0;whiteSpace=wrap;html=1;" vertex="1" parent="1">
          <mxGeometry x="40" y="60" width="120" height="90" as="geometry" />
        </mxCell>
        <mxCell id="bu_8oY3RxGgpF0Y-g3ye-2" value="Roles&lt;br&gt;- Role ID&lt;br&gt;- Role Name" style="rounded=0;whiteSpace=wrap;html=1;" vertex="1" parent="1">
          <mxGeometry x="630" y="60" width="120" height="60" as="geometry" />
        </mxCell>
        <mxCell id="bu_8oY3RxGgpF0Y-g3ye-3" value="User&lt;br&gt;- User ID&lt;br&gt;- User Role&lt;br&gt;- Name" style="rounded=0;whiteSpace=wrap;html=1;" vertex="1" parent="1">
          <mxGeometry x="450" y="60" width="120" height="110" as="geometry" />
        </mxCell>
        <mxCell id="bu_8oY3RxGgpF0Y-g3ye-4" value="Enrolled&lt;br&gt;- User ID&lt;br&gt;- Tech ID&lt;br&gt;- Start Date&lt;br&gt;- Progress&amp;nbsp;&lt;br&gt;- Grade" style="rounded=0;whiteSpace=wrap;html=1;" vertex="1" parent="1">
          <mxGeometry x="230" y="60" width="120" height="130" as="geometry" />
        </mxCell>
        <mxCell id="bu_8oY3RxGgpF0Y-g3ye-6" value="Assessments&lt;br&gt;- Tech ID&lt;br&gt;- Assessment ID&lt;br&gt;- Assessment Name&lt;br&gt;- Questions" style="rounded=0;whiteSpace=wrap;html=1;" vertex="1" parent="1">
          <mxGeometry x="40" y="190" width="120" height="110" as="geometry" />
        </mxCell>
        <mxCell id="bu_8oY3RxGgpF0Y-g3ye-7" value="Quiz&lt;br&gt;- Tech ID&lt;br&gt;- Quiz ID&lt;br&gt;- Quiz Name&lt;br&gt;" style="rounded=0;whiteSpace=wrap;html=1;" vertex="1" parent="1">
          <mxGeometry x="40" y="340" width="120" height="80" as="geometry" />
        </mxCell>
        <mxCell id="bu_8oY3RxGgpF0Y-g3ye-8" value="Quiz Questions&lt;br&gt;- Quiz ID&lt;br&gt;- Question ID&lt;br&gt;- Question&lt;br&gt;- Options []&lt;br&gt;- Correct Option" style="rounded=0;whiteSpace=wrap;html=1;" vertex="1" parent="1">
          <mxGeometry x="-120" y="325" width="120" height="110" as="geometry" />
        </mxCell>
        <mxCell id="bu_8oY3RxGgpF0Y-g3ye-9" value="Tutorial&lt;br&gt;- Tech ID&lt;br&gt;- Tutorial ID&lt;br&gt;- Tutorial Name&lt;br&gt;- Link&lt;br&gt;" style="rounded=0;whiteSpace=wrap;html=1;" vertex="1" parent="1">
          <mxGeometry x="40" y="-60" width="120" height="90" as="geometry" />
        </mxCell>
      </root>
    </mxGraphModel>
  </diagram>
</mxfile>
